<svg xmlns="http://www.w3.org/2000/svg" xmlns:xlink="http://www.w3.org/1999/xlink" width="500" zoomAndPan="magnify" viewBox="0 0 375 374.999991" height="500" preserveAspectRatio="xMidYMid meet" version="1.0"><defs><clipPath id="1868b7e9ee"><path d="M 185 0 L 302.910156 0 L 302.910156 260 L 185 260 Z M 185 0 " clip-rule="nonzero"/></clipPath><clipPath id="e667552f4d"><path d="M 72.660156 0 L 188 0 L 188 260 L 72.660156 260 Z M 72.660156 0 " clip-rule="nonzero"/></clipPath><clipPath id="ad76cad19f"><path d="M 186 212 L 302.910156 212 L 302.910156 375 L 186 375 Z M 186 212 " clip-rule="nonzero"/></clipPath><clipPath id="fdaaa220f2"><path d="M 72.660156 212 L 188 212 L 188 375 L 72.660156 375 Z M 72.660156 212 " clip-rule="nonzero"/></clipPath><clipPath id="1d809baa8a"><path d="M 187 138 L 302.910156 138 L 302.910156 260 L 187 260 Z M 187 138 " clip-rule="nonzero"/></clipPath><clipPath id="9007d49a45"><path d="M 72.660156 138 L 188 138 L 188 260 L 72.660156 260 Z M 72.660156 138 " clip-rule="nonzero"/></clipPath><clipPath id="b5342ce3cf"><path d="M 210 36 L 329 36 L 329 182 L 210 182 Z M 210 36 " clip-rule="nonzero"/></clipPath><clipPath id="9716c48026"><path d="M 233.800781 25.910156 L 341.824219 62.335938 L 295.8125 198.785156 L 187.789062 162.359375 Z M 233.800781 25.910156 " clip-rule="nonzero"/></clipPath><clipPath id="1f0664fe31"><path d="M 233.800781 25.910156 L 341.824219 62.335938 L 295.8125 198.785156 L 187.789062 162.359375 Z M 233.800781 25.910156 " clip-rule="nonzero"/></clipPath><clipPath id="65c2a2743c"><path d="M 233.800781 25.910156 L 341.824219 62.335938 L 295.8125 198.785156 L 187.789062 162.359375 Z M 233.800781 25.910156 " clip-rule="nonzero"/></clipPath><clipPath id="973b0c75ab"><path d="M 290 72 L 321 72 L 321 92 L 290 92 Z M 290 72 " clip-rule="nonzero"/></clipPath><clipPath id="6ba664997c"><path d="M 233.800781 25.910156 L 341.824219 62.335938 L 295.8125 198.785156 L 187.789062 162.359375 Z M 233.800781 25.910156 " clip-rule="nonzero"/></clipPath><clipPath id="0a1aedef0d"><path d="M 233.800781 25.910156 L 341.824219 62.335938 L 295.8125 198.785156 L 187.789062 162.359375 Z M 233.800781 25.910156 " clip-rule="nonzero"/></clipPath><clipPath id="d88d69aa5d"><path d="M 233.800781 25.910156 L 341.824219 62.335938 L 295.8125 198.785156 L 187.789062 162.359375 Z M 233.800781 25.910156 " clip-rule="nonzero"/></clipPath><clipPath id="fa0d456c51"><path d="M 283 76 L 321 76 L 321 91 L 283 91 Z M 283 76 " clip-rule="nonzero"/></clipPath><clipPath id="420ab915d4"><path d="M 233.800781 25.910156 L 341.824219 62.335938 L 295.8125 198.785156 L 187.789062 162.359375 Z M 233.800781 25.910156 " clip-rule="nonzero"/></clipPath><clipPath id="6fde3884ca"><path d="M 233.800781 25.910156 L 341.824219 62.335938 L 295.8125 198.785156 L 187.789062 162.359375 Z M 233.800781 25.910156 " clip-rule="nonzero"/></clipPath><clipPath id="1a32263fbc"><path d="M 233.800781 25.910156 L 341.824219 62.335938 L 295.8125 198.785156 L 187.789062 162.359375 Z M 233.800781 25.910156 " clip-rule="nonzero"/></clipPath><clipPath id="803afdacd5"><path d="M 282 96 L 306 96 L 306 107 L 282 107 Z M 282 96 " clip-rule="nonzero"/></clipPath><clipPath id="5d9a2fbea8"><path d="M 233.800781 25.910156 L 341.824219 62.335938 L 295.8125 198.785156 L 187.789062 162.359375 Z M 233.800781 25.910156 " clip-rule="nonzero"/></clipPath><clipPath id="e561f61344"><path d="M 233.800781 25.910156 L 341.824219 62.335938 L 295.8125 198.785156 L 187.789062 162.359375 Z M 233.800781 25.910156 " clip-rule="nonzero"/></clipPath><clipPath id="459fe44d6a"><path d="M 233.800781 25.910156 L 341.824219 62.335938 L 295.8125 198.785156 L 187.789062 162.359375 Z M 233.800781 25.910156 " clip-rule="nonzero"/></clipPath><clipPath id="1cf5e26bd8"><path d="M 267 126 L 274 126 L 274 130 L 267 130 Z M 267 126 " clip-rule="nonzero"/></clipPath><clipPath id="63810fd673"><path d="M 233.800781 25.910156 L 341.824219 62.335938 L 295.8125 198.785156 L 187.789062 162.359375 Z M 233.800781 25.910156 " clip-rule="nonzero"/></clipPath><clipPath id="768ec8fe22"><path d="M 233.800781 25.910156 L 341.824219 62.335938 L 295.8125 198.785156 L 187.789062 162.359375 Z M 233.800781 25.910156 " clip-rule="nonzero"/></clipPath><clipPath id="51cf864906"><path d="M 233.800781 25.910156 L 341.824219 62.335938 L 295.8125 198.785156 L 187.789062 162.359375 Z M 233.800781 25.910156 " clip-rule="nonzero"/></clipPath><clipPath id="f55ea5bfa1"><path d="M 232 130 L 280 130 L 280 151 L 232 151 Z M 232 130 " clip-rule="nonzero"/></clipPath><clipPath id="30f80c5ea9"><path d="M 233.800781 25.910156 L 341.824219 62.335938 L 295.8125 198.785156 L 187.789062 162.359375 Z M 233.800781 25.910156 " clip-rule="nonzero"/></clipPath><clipPath id="66240d4ef9"><path d="M 233.800781 25.910156 L 341.824219 62.335938 L 295.8125 198.785156 L 187.789062 162.359375 Z M 233.800781 25.910156 " clip-rule="nonzero"/></clipPath><clipPath id="0646bad0b7"><path d="M 233.800781 25.910156 L 341.824219 62.335938 L 295.8125 198.785156 L 187.789062 162.359375 Z M 233.800781 25.910156 " clip-rule="nonzero"/></clipPath><clipPath id="e1b6f81487"><path d="M 222 109 L 301 109 L 301 149 L 222 149 Z M 222 109 " clip-rule="nonzero"/></clipPath><clipPath id="7c5ab45562"><path d="M 233.800781 25.910156 L 341.824219 62.335938 L 295.8125 198.785156 L 187.789062 162.359375 Z M 233.800781 25.910156 " clip-rule="nonzero"/></clipPath><clipPath id="ba55c8656d"><path d="M 233.800781 25.910156 L 341.824219 62.335938 L 295.8125 198.785156 L 187.789062 162.359375 Z M 233.800781 25.910156 " clip-rule="nonzero"/></clipPath><clipPath id="0a45965a20"><path d="M 233.800781 25.910156 L 341.824219 62.335938 L 295.8125 198.785156 L 187.789062 162.359375 Z M 233.800781 25.910156 " clip-rule="nonzero"/></clipPath><clipPath id="89859d8583"><path d="M 242 135 L 269 135 L 269 146 L 242 146 Z M 242 135 " clip-rule="nonzero"/></clipPath><clipPath id="08e0994c73"><path d="M 233.800781 25.910156 L 341.824219 62.335938 L 295.8125 198.785156 L 187.789062 162.359375 Z M 233.800781 25.910156 " clip-rule="nonzero"/></clipPath><clipPath id="7831fd7a59"><path d="M 233.800781 25.910156 L 341.824219 62.335938 L 295.8125 198.785156 L 187.789062 162.359375 Z M 233.800781 25.910156 " clip-rule="nonzero"/></clipPath><clipPath id="7e1c1e2b36"><path d="M 233.800781 25.910156 L 341.824219 62.335938 L 295.8125 198.785156 L 187.789062 162.359375 Z M 233.800781 25.910156 " clip-rule="nonzero"/></clipPath><clipPath id="381f41d0e4"><path d="M 240 147 L 259 147 L 259 181 L 240 181 Z M 240 147 " clip-rule="nonzero"/></clipPath><clipPath id="553d32a24a"><path d="M 233.800781 25.910156 L 341.824219 62.335938 L 295.8125 198.785156 L 187.789062 162.359375 Z M 233.800781 25.910156 " clip-rule="nonzero"/></clipPath><clipPath id="88799c8868"><path d="M 233.800781 25.910156 L 341.824219 62.335938 L 295.8125 198.785156 L 187.789062 162.359375 Z M 233.800781 25.910156 " clip-rule="nonzero"/></clipPath><clipPath id="820e31d697"><path d="M 233.800781 25.910156 L 341.824219 62.335938 L 295.8125 198.785156 L 187.789062 162.359375 Z M 233.800781 25.910156 " clip-rule="nonzero"/></clipPath><clipPath id="62c0d94c24"><path d="M 269 122 L 310 122 L 310 166 L 269 166 Z M 269 122 " clip-rule="nonzero"/></clipPath><clipPath id="50fb516339"><path d="M 233.800781 25.910156 L 341.824219 62.335938 L 295.8125 198.785156 L 187.789062 162.359375 Z M 233.800781 25.910156 " clip-rule="nonzero"/></clipPath><clipPath id="ed13e0f52d"><path d="M 233.800781 25.910156 L 341.824219 62.335938 L 295.8125 198.785156 L 187.789062 162.359375 Z M 233.800781 25.910156 " clip-rule="nonzero"/></clipPath><clipPath id="b2eb5d40d9"><path d="M 233.800781 25.910156 L 341.824219 62.335938 L 295.8125 198.785156 L 187.789062 162.359375 Z M 233.800781 25.910156 " clip-rule="nonzero"/></clipPath><clipPath id="eaa65cea36"><path d="M 279 80 L 321 80 L 321 95 L 279 95 Z M 279 80 " clip-rule="nonzero"/></clipPath><clipPath id="9a0f2e88bc"><path d="M 233.800781 25.910156 L 341.824219 62.335938 L 295.8125 198.785156 L 187.789062 162.359375 Z M 233.800781 25.910156 " clip-rule="nonzero"/></clipPath><clipPath id="cd372cc7ba"><path d="M 233.800781 25.910156 L 341.824219 62.335938 L 295.8125 198.785156 L 187.789062 162.359375 Z M 233.800781 25.910156 " clip-rule="nonzero"/></clipPath><clipPath id="3ac5c3d7ac"><path d="M 233.800781 25.910156 L 341.824219 62.335938 L 295.8125 198.785156 L 187.789062 162.359375 Z M 233.800781 25.910156 " clip-rule="nonzero"/></clipPath><clipPath id="d68508d75c"><path d="M 245 86 L 280 86 L 280 130 L 245 130 Z M 245 86 " clip-rule="nonzero"/></clipPath><clipPath id="7ec0cf6dcb"><path d="M 233.800781 25.910156 L 341.824219 62.335938 L 295.8125 198.785156 L 187.789062 162.359375 Z M 233.800781 25.910156 " clip-rule="nonzero"/></clipPath><clipPath id="3453b6dced"><path d="M 233.800781 25.910156 L 341.824219 62.335938 L 295.8125 198.785156 L 187.789062 162.359375 Z M 233.800781 25.910156 " clip-rule="nonzero"/></clipPath><clipPath id="16e433e063"><path d="M 233.800781 25.910156 L 341.824219 62.335938 L 295.8125 198.785156 L 187.789062 162.359375 Z M 233.800781 25.910156 " clip-rule="nonzero"/></clipPath><clipPath id="dd0aa8b0c8"><path d="M 281 93 L 320 93 L 320 120 L 281 120 Z M 281 93 " clip-rule="nonzero"/></clipPath><clipPath id="0ebc67bb47"><path d="M 233.800781 25.910156 L 341.824219 62.335938 L 295.8125 198.785156 L 187.789062 162.359375 Z M 233.800781 25.910156 " clip-rule="nonzero"/></clipPath><clipPath id="1d54ef6b04"><path d="M 233.800781 25.910156 L 341.824219 62.335938 L 295.8125 198.785156 L 187.789062 162.359375 Z M 233.800781 25.910156 " clip-rule="nonzero"/></clipPath><clipPath id="ddf52e4d2e"><path d="M 233.800781 25.910156 L 341.824219 62.335938 L 295.8125 198.785156 L 187.789062 162.359375 Z M 233.800781 25.910156 " clip-rule="nonzero"/></clipPath><clipPath id="ce692ee33f"><path d="M 233 53 L 267 53 L 267 68 L 233 68 Z M 233 53 " clip-rule="nonzero"/></clipPath><clipPath id="90abf18cd4"><path d="M 233.800781 25.910156 L 341.824219 62.335938 L 295.8125 198.785156 L 187.789062 162.359375 Z M 233.800781 25.910156 " clip-rule="nonzero"/></clipPath><clipPath id="fbfe0215b0"><path d="M 233.800781 25.910156 L 341.824219 62.335938 L 295.8125 198.785156 L 187.789062 162.359375 Z M 233.800781 25.910156 " clip-rule="nonzero"/></clipPath><clipPath id="3bfda66ffc"><path d="M 233.800781 25.910156 L 341.824219 62.335938 L 295.8125 198.785156 L 187.789062 162.359375 Z M 233.800781 25.910156 " clip-rule="nonzero"/></clipPath><clipPath id="9e40b1c5ee"><path d="M 233 56 L 269 56 L 269 79 L 233 79 Z M 233 56 " clip-rule="nonzero"/></clipPath><clipPath id="4f5c3df1c5"><path d="M 233.800781 25.910156 L 341.824219 62.335938 L 295.8125 198.785156 L 187.789062 162.359375 Z M 233.800781 25.910156 " clip-rule="nonzero"/></clipPath><clipPath id="761e602732"><path d="M 233.800781 25.910156 L 341.824219 62.335938 L 295.8125 198.785156 L 187.789062 162.359375 Z M 233.800781 25.910156 " clip-rule="nonzero"/></clipPath><clipPath id="058544d7cc"><path d="M 233.800781 25.910156 L 341.824219 62.335938 L 295.8125 198.785156 L 187.789062 162.359375 Z M 233.800781 25.910156 " clip-rule="nonzero"/></clipPath><clipPath id="a5f036ead9"><path d="M 235 80 L 259 80 L 259 91 L 235 91 Z M 235 80 " clip-rule="nonzero"/></clipPath><clipPath id="9325a8b1a6"><path d="M 233.800781 25.910156 L 341.824219 62.335938 L 295.8125 198.785156 L 187.789062 162.359375 Z M 233.800781 25.910156 " clip-rule="nonzero"/></clipPath><clipPath id="cfa047dfd0"><path d="M 233.800781 25.910156 L 341.824219 62.335938 L 295.8125 198.785156 L 187.789062 162.359375 Z M 233.800781 25.910156 " clip-rule="nonzero"/></clipPath><clipPath id="4100a27a43"><path d="M 233.800781 25.910156 L 341.824219 62.335938 L 295.8125 198.785156 L 187.789062 162.359375 Z M 233.800781 25.910156 " clip-rule="nonzero"/></clipPath><clipPath id="e0d3535b2b"><path d="M 248 119 L 253 119 L 253 124 L 248 124 Z M 248 119 " clip-rule="nonzero"/></clipPath><clipPath id="9c3bada781"><path d="M 233.800781 25.910156 L 341.824219 62.335938 L 295.8125 198.785156 L 187.789062 162.359375 Z M 233.800781 25.910156 " clip-rule="nonzero"/></clipPath><clipPath id="49136488d1"><path d="M 233.800781 25.910156 L 341.824219 62.335938 L 295.8125 198.785156 L 187.789062 162.359375 Z M 233.800781 25.910156 " clip-rule="nonzero"/></clipPath><clipPath id="27371fecca"><path d="M 233.800781 25.910156 L 341.824219 62.335938 L 295.8125 198.785156 L 187.789062 162.359375 Z M 233.800781 25.910156 " clip-rule="nonzero"/></clipPath><clipPath id="fa88c33811"><path d="M 216 101 L 245 101 L 245 152 L 216 152 Z M 216 101 " clip-rule="nonzero"/></clipPath><clipPath id="cb9eea2eb6"><path d="M 233.800781 25.910156 L 341.824219 62.335938 L 295.8125 198.785156 L 187.789062 162.359375 Z M 233.800781 25.910156 " clip-rule="nonzero"/></clipPath><clipPath id="563bf4d0c7"><path d="M 233.800781 25.910156 L 341.824219 62.335938 L 295.8125 198.785156 L 187.789062 162.359375 Z M 233.800781 25.910156 " clip-rule="nonzero"/></clipPath><clipPath id="9b567ba68b"><path d="M 233.800781 25.910156 L 341.824219 62.335938 L 295.8125 198.785156 L 187.789062 162.359375 Z M 233.800781 25.910156 " clip-rule="nonzero"/></clipPath><clipPath id="a14307f548"><path d="M 233 58 L 266 58 L 266 90 L 233 90 Z M 233 58 " clip-rule="nonzero"/></clipPath><clipPath id="249949d2df"><path d="M 233.800781 25.910156 L 341.824219 62.335938 L 295.8125 198.785156 L 187.789062 162.359375 Z M 233.800781 25.910156 " clip-rule="nonzero"/></clipPath><clipPath id="9871c4db78"><path d="M 233.800781 25.910156 L 341.824219 62.335938 L 295.8125 198.785156 L 187.789062 162.359375 Z M 233.800781 25.910156 " clip-rule="nonzero"/></clipPath><clipPath id="28addaeed8"><path d="M 233.800781 25.910156 L 341.824219 62.335938 L 295.8125 198.785156 L 187.789062 162.359375 Z M 233.800781 25.910156 " clip-rule="nonzero"/></clipPath><clipPath id="30f200991e"><path d="M 219 73 L 261 73 L 261 94 L 219 94 Z M 219 73 " clip-rule="nonzero"/></clipPath><clipPath id="95c5dfde6e"><path d="M 233.800781 25.910156 L 341.824219 62.335938 L 295.8125 198.785156 L 187.789062 162.359375 Z M 233.800781 25.910156 " clip-rule="nonzero"/></clipPath><clipPath id="008c2836ee"><path d="M 233.800781 25.910156 L 341.824219 62.335938 L 295.8125 198.785156 L 187.789062 162.359375 Z M 233.800781 25.910156 " clip-rule="nonzero"/></clipPath><clipPath id="d5f053afa1"><path d="M 233.800781 25.910156 L 341.824219 62.335938 L 295.8125 198.785156 L 187.789062 162.359375 Z M 233.800781 25.910156 " clip-rule="nonzero"/></clipPath></defs><g clip-path="url(#1868b7e9ee)"><path fill="#343434" d="M 187.75 0 L 185.242188 8.546875 L 185.242188 256.507812 L 187.75 259.019531 L 302.75 190.980469 Z M 187.75 0 " fill-opacity="1" fill-rule="nonzero"/></g><g clip-path="url(#e667552f4d)"><path fill="#8c8c8c" d="M 187.75 0 L 72.75 190.980469 L 187.75 259.019531 Z M 187.75 0 " fill-opacity="1" fill-rule="nonzero"/></g><g clip-path="url(#ad76cad19f)"><path fill="#3c3c3b" d="M 187.75 280.8125 L 186.339844 282.539062 L 186.339844 370.871094 L 187.75 375.007812 L 302.820312 212.8125 Z M 187.75 280.8125 " fill-opacity="1" fill-rule="nonzero"/></g><g clip-path="url(#fdaaa220f2)"><path fill="#8c8c8c" d="M 187.75 375.007812 L 187.75 280.8125 L 72.75 212.8125 Z M 187.75 375.007812 " fill-opacity="1" fill-rule="nonzero"/></g><g clip-path="url(#1d809baa8a)"><path fill="#141414" d="M 187.75 259.019531 L 302.75 190.980469 L 187.75 138.667969 Z M 187.75 259.019531 " fill-opacity="1" fill-rule="nonzero"/></g><g clip-path="url(#9007d49a45)"><path fill="#393939" d="M 72.75 190.980469 L 187.75 259.019531 L 187.75 138.667969 Z M 72.75 190.980469 " fill-opacity="1" fill-rule="nonzero"/></g><g clip-path="url(#b5342ce3cf)"><g clip-path="url(#9716c48026)"><g clip-path="url(#1f0664fe31)"><g clip-path="url(#65c2a2743c)"><path fill="#f8edd9" d="M 288.507812 44.347656 C 254.476562 32.871094 248.570312 37.105469 248.570312 37.105469 C 248.570312 37.105469 230.632812 35.667969 214.53125 91.027344 C 199.40625 143.027344 233.539062 177.71875 241.277344 180.328125 L 242.34375 180.742188 C 250.078125 183.351562 298.253906 176.410156 317.707031 125.875 C 338.417969 72.070312 323.273438 62.347656 323.273438 62.347656 C 323.273438 62.347656 321.175781 55.585938 288.496094 44.394531 C 288.496094 44.394531 288.511719 44.347656 288.511719 44.347656 Z M 288.507812 44.347656 " fill-opacity="1" fill-rule="nonzero"/></g></g></g></g><g clip-path="url(#973b0c75ab)"><g clip-path="url(#6ba664997c)"><g clip-path="url(#0a1aedef0d)"><g clip-path="url(#d88d69aa5d)"><path fill="#969696" d="M 290.425781 75.308594 C 290.425781 75.308594 302.683594 70.757812 310.300781 73.8125 C 317.917969 76.871094 320.761719 86.058594 320.375 90.867188 C 319.984375 95.675781 322.53125 74.757812 290.425781 75.308594 Z M 290.425781 75.308594 " fill-opacity="1" fill-rule="nonzero"/></g></g></g></g><g clip-path="url(#fa0d456c51)"><g clip-path="url(#420ab915d4)"><g clip-path="url(#6fde3884ca)"><g clip-path="url(#1a32263fbc)"><path fill="#000000" d="M 283.796875 81.820312 C 283.796875 81.820312 296.171875 75.265625 307.292969 77.285156 C 318.414062 79.308594 320.371094 90.867188 320.371094 90.867188 C 320.371094 90.867188 318.058594 82.90625 305.589844 82.078125 C 293.121094 81.246094 286.675781 84.523438 286.675781 84.523438 C 286.675781 84.523438 283.1875 85.421875 283.796875 81.820312 Z M 283.796875 81.820312 " fill-opacity="1" fill-rule="nonzero"/></g></g></g></g><g clip-path="url(#803afdacd5)"><g clip-path="url(#5d9a2fbea8)"><g clip-path="url(#e561f61344)"><g clip-path="url(#459fe44d6a)"><path fill="#000000" d="M 282.789062 98.347656 C 282.789062 98.347656 289.390625 95.125 295.9375 97.160156 C 302.488281 99.195312 305.617188 103.96875 305.917969 105.886719 C 306.21875 107.808594 298.679688 106.910156 292.777344 104.746094 C 286.875 102.582031 284.789062 100.839844 282.789062 98.347656 Z M 282.789062 98.347656 " fill-opacity="1" fill-rule="nonzero"/></g></g></g></g><g clip-path="url(#1cf5e26bd8)"><g clip-path="url(#63810fd673)"><g clip-path="url(#768ec8fe22)"><g clip-path="url(#51cf864906)"><path fill="#000000" d="M 267.929688 128.375 C 268.164062 127.675781 268.890625 126.796875 270.671875 126.878906 C 272.453125 126.960938 274.050781 127.84375 272.238281 128.617188 C 270.429688 129.390625 269.035156 129.179688 267.929688 128.375 Z M 267.929688 128.375 " fill-opacity="1" fill-rule="nonzero"/></g></g></g></g><g clip-path="url(#f55ea5bfa1)"><g clip-path="url(#30f80c5ea9)"><g clip-path="url(#66240d4ef9)"><g clip-path="url(#0646bad0b7)"><path fill="#ffffff" d="M 232.324219 130.71875 C 232.324219 130.71875 232.945312 134.292969 237.597656 138.921875 C 242.25 143.546875 252.972656 146.976562 252.972656 146.976562 C 252.972656 146.976562 263.839844 150.882812 270.34375 150.015625 C 276.851562 149.152344 279.507812 146.683594 279.507812 146.683594 L 277.136719 146.492188 C 277.136719 146.492188 273.46875 148.917969 263.828125 147.699219 C 258.167969 146.984375 253.679688 145.074219 253.679688 145.074219 C 253.679688 145.074219 249.125 143.878906 244.1875 141.023438 C 235.777344 136.15625 234.328125 132.003906 234.328125 132.003906 Z M 232.324219 130.71875 " fill-opacity="0.8549" fill-rule="nonzero"/></g></g></g></g><g clip-path="url(#e1b6f81487)"><g clip-path="url(#7c5ab45562)"><g clip-path="url(#ba55c8656d)"><g clip-path="url(#0a45965a20)"><path fill="#000000" d="M 222.40625 109.859375 L 226.996094 127.152344 C 226.996094 127.152344 228.117188 129.953125 230.695312 130.996094 C 233.273438 132.039062 248.640625 137.046875 248.640625 137.046875 L 257.476562 131.035156 L 258.472656 131.371094 L 259.320312 131.695312 L 262.691406 141.839844 C 262.691406 141.839844 277.957031 147.160156 280.636719 147.890625 C 283.320312 148.621094 285.917969 147.078125 285.917969 147.078125 L 300.046875 136.09375 L 295.417969 134.972656 C 295.417969 134.972656 292.527344 136.675781 290.117188 138.199219 C 287.710938 139.722656 285.824219 143.492188 281.671875 142.265625 C 277.519531 141.039062 270.65625 138.078125 269.839844 136.199219 C 268.769531 133.757812 266.765625 129.019531 266.765625 129.019531 C 263.894531 129.867188 259.476562 128.15625 259.476562 128.15625 C 259.476562 128.15625 254.933594 126.792969 253.164062 124.378906 C 253.164062 124.378906 248.707031 126.9375 246.378906 128.238281 C 244.589844 129.234375 237.324219 127.429688 233.277344 125.894531 C 229.230469 124.355469 230.027344 120.214844 229.03125 117.546875 C 228.039062 114.875 226.757812 111.761719 226.757812 111.761719 L 222.40625 109.855469 Z M 222.40625 109.859375 " fill-opacity="1" fill-rule="nonzero"/></g></g></g></g><g clip-path="url(#89859d8583)"><g clip-path="url(#08e0994c73)"><g clip-path="url(#7831fd7a59)"><g clip-path="url(#7e1c1e2b36)"><path fill="#000000" d="M 243.238281 135.941406 C 243.238281 135.941406 241.9375 136.03125 242.164062 136.339844 C 243.734375 138.457031 255.171875 142.1875 255.171875 142.1875 C 255.171875 142.1875 265.761719 145.925781 268.292969 145.191406 C 268.660156 145.082031 267.664062 144.230469 267.664062 144.230469 L 255.691406 140.140625 Z M 243.238281 135.941406 " fill-opacity="1" fill-rule="nonzero"/></g></g></g></g><g clip-path="url(#381f41d0e4)"><g clip-path="url(#553d32a24a)"><g clip-path="url(#88799c8868)"><g clip-path="url(#820e31d697)"><path fill="#000000" d="M 252.921875 149.835938 L 252.917969 149.847656 L 245.808594 147.449219 C 245.808594 147.449219 248.488281 151.042969 247.5625 153.789062 C 246.636719 156.535156 244.644531 157.113281 242.214844 164.582031 C 238.890625 174.792969 241.84375 180.519531 241.867188 180.558594 C 241.867188 180.558594 247.574219 177.820312 251.128906 167.640625 C 253.71875 160.226562 252.484375 158.558594 253.410156 155.8125 C 254.335938 153.066406 258.648438 151.820312 258.648438 151.820312 Z M 252.921875 149.835938 " fill-opacity="1" fill-rule="nonzero"/></g></g></g></g><g clip-path="url(#62c0d94c24)"><g clip-path="url(#50fb516339)"><g clip-path="url(#ed13e0f52d)"><g clip-path="url(#b2eb5d40d9)"><path fill="#969696" d="M 309.179688 132.773438 C 309.179688 132.773438 302.589844 144.007812 294.78125 149.816406 C 286.976562 155.625 269.542969 165.773438 269.542969 165.773438 C 269.542969 165.773438 280.132812 158.214844 283.472656 155.179688 C 286.808594 152.144531 288.609375 150.425781 288.609375 150.425781 C 288.609375 150.425781 283.703125 153.054688 278.660156 153.554688 C 273.617188 154.058594 270.226562 152.914062 270.226562 152.914062 C 270.226562 152.914062 282.527344 154.371094 289.710938 148.597656 C 296.898438 142.824219 302.554688 136.167969 302.554688 136.167969 C 302.554688 136.167969 295.539062 136.738281 287.714844 130.671875 C 279.890625 124.609375 281.394531 123.402344 281.394531 123.402344 C 281.394531 123.402344 282.863281 121.941406 283.300781 122.453125 C 283.734375 122.96875 287.359375 128.839844 293.296875 131.820312 C 299.234375 134.804688 304.269531 136.5 309.179688 132.773438 Z M 309.179688 132.773438 " fill-opacity="1" fill-rule="nonzero"/></g></g></g></g><g clip-path="url(#eaa65cea36)"><g clip-path="url(#9a0f2e88bc)"><g clip-path="url(#cd372cc7ba)"><g clip-path="url(#3ac5c3d7ac)"><path fill="#969696" d="M 320.375 90.871094 C 320.375 90.871094 318.164062 79.402344 302.78125 80.210938 C 287.402344 81.019531 283.476562 85.445312 279.414062 94.597656 C 279.414062 94.597656 300.757812 76.746094 320.375 90.867188 Z M 320.375 90.871094 " fill-opacity="1" fill-rule="nonzero"/></g></g></g></g><g clip-path="url(#d68508d75c)"><g clip-path="url(#7ec0cf6dcb)"><g clip-path="url(#3453b6dced)"><g clip-path="url(#16e433e063)"><path fill="#969696" d="M 266.765625 86.359375 C 266.765625 86.359375 263.832031 98.339844 256.097656 104.296875 C 248.363281 110.253906 246.359375 110.796875 245.683594 112.785156 C 244.992188 114.828125 246.125 119.410156 246.125 119.410156 C 246.125 119.410156 245.8125 114.570312 246.957031 113.332031 C 248.960938 111.164062 254.066406 108.871094 255.273438 108.542969 C 256.480469 108.214844 257.25 107.375 256.949219 108.988281 C 256.652344 110.601562 254.46875 114.753906 253.699219 116.828125 C 251.242188 123.429688 260.222656 126.34375 260.222656 126.34375 C 260.222656 126.34375 268.875 129.417969 270.917969 122.675781 C 271.558594 120.554688 272.335938 115.941406 273.074219 114.476562 C 273.808594 113.015625 273.914062 114.148438 274.675781 115.140625 C 275.441406 116.128906 278.113281 121.046875 278.394531 123.988281 C 278.554688 125.664062 275.375 129.328125 275.375 129.328125 C 275.375 129.328125 279.058594 126.355469 279.742188 124.308594 C 280.410156 122.320312 279.140625 120.6875 276.59375 111.261719 C 274.046875 101.839844 278.964844 90.527344 278.964844 90.527344 C 276.792969 93.710938 271.941406 107.367188 270.601562 112.421875 C 269.261719 117.476562 269.0625 122.0625 267.625 124.148438 C 266.191406 126.230469 260.859375 124.5 260.859375 124.5 C 260.859375 124.5 255.308594 122.507812 255.429688 119.980469 C 255.550781 117.453125 258.167969 113.679688 260.164062 108.847656 C 262.160156 104.015625 266.566406 90.207031 266.765625 86.363281 Z M 266.765625 86.359375 " fill-opacity="1" fill-rule="nonzero"/></g></g></g></g><g clip-path="url(#dd0aa8b0c8)"><g clip-path="url(#0ebc67bb47)"><g clip-path="url(#1d54ef6b04)"><g clip-path="url(#ddf52e4d2e)"><path fill="#646464" d="M 298.074219 94.808594 C 288.765625 91.886719 281.90625 95.980469 281.148438 98.105469 C 280.871094 99.308594 282.300781 101.730469 284.152344 103.652344 C 286.003906 105.574219 292.027344 108.515625 295.816406 109.792969 C 299.605469 111.070312 305.574219 110.359375 307.445312 110.296875 C 309.320312 110.238281 310.304688 111.398438 312.121094 112.660156 C 313.933594 113.917969 316.71875 119.089844 316.71875 119.089844 C 316.71875 119.089844 315.519531 115.839844 314.378906 114.246094 C 313.238281 112.648438 311.246094 110.796875 311.542969 110.683594 C 311.839844 110.566406 312.890625 111.277344 314.097656 112.289062 C 315.308594 113.300781 316.636719 115.605469 316.636719 115.605469 C 316.636719 115.605469 315.683594 113.210938 314.875 112.03125 C 314.066406 110.851562 313.246094 110.21875 313.246094 110.21875 C 313.246094 110.21875 314.617188 109.738281 315.875 108.949219 C 317.128906 108.164062 319.101562 105.238281 319.101562 105.238281 C 319.101562 105.238281 317.140625 106.988281 316.050781 107.917969 C 314.960938 108.847656 313.4375 109.511719 311.953125 109.183594 C 310.472656 108.859375 309.789062 107.320312 308.707031 104.40625 C 307.621094 101.488281 307.382812 97.730469 298.074219 94.808594 Z M 298.304688 96.363281 C 308.003906 99.417969 307.101562 107.628906 307.101562 107.628906 C 307.101562 107.628906 303.222656 109.425781 293.378906 106.417969 C 289.25 105.15625 281.628906 101.628906 283.3125 98.449219 C 283.3125 98.449219 286.613281 93.28125 297.34375 96.078125 C 297.675781 96.164062 297.992188 96.261719 298.304688 96.363281 Z M 298.304688 96.363281 " fill-opacity="1" fill-rule="nonzero"/></g></g></g></g><g clip-path="url(#ce692ee33f)"><g clip-path="url(#90abf18cd4)"><g clip-path="url(#fbfe0215b0)"><g clip-path="url(#3bfda66ffc)"><path fill="#969696" d="M 266.863281 67.3125 C 266.863281 67.3125 259.867188 56.265625 251.953125 54.085938 C 244.039062 51.90625 236.210938 57.496094 233.609375 61.558594 C 231.007812 65.621094 241.648438 47.429688 266.863281 67.3125 Z M 266.863281 67.3125 " fill-opacity="1" fill-rule="nonzero"/></g></g></g></g><g clip-path="url(#9e40b1c5ee)"><g clip-path="url(#4f5c3df1c5)"><g clip-path="url(#761e602732)"><g clip-path="url(#058544d7cc)"><path fill="#000000" d="M 268.191406 76.507812 C 268.191406 76.507812 262.3125 63.796875 252.238281 58.671875 C 242.167969 53.542969 233.605469 61.558594 233.605469 61.558594 C 233.605469 61.558594 240.265625 56.621094 250.691406 63.511719 C 261.117188 70.402344 264.265625 76.914062 264.265625 76.914062 C 264.265625 76.914062 266.496094 79.742188 268.191406 76.507812 Z M 268.191406 76.507812 " fill-opacity="1" fill-rule="nonzero"/></g></g></g></g><g clip-path="url(#a5f036ead9)"><g clip-path="url(#9325a8b1a6)"><g clip-path="url(#cfa047dfd0)"><g clip-path="url(#4100a27a43)"><path fill="#000000" d="M 258.984375 90.273438 C 258.984375 90.273438 255.683594 83.710938 249.238281 81.363281 C 242.792969 79.019531 237.414062 80.925781 236.011719 82.269531 C 234.613281 83.613281 241.152344 87.460938 247.160156 89.316406 C 253.167969 91.167969 255.882812 91.042969 258.984375 90.273438 Z M 258.984375 90.273438 " fill-opacity="1" fill-rule="nonzero"/></g></g></g></g><g clip-path="url(#e0d3535b2b)"><g clip-path="url(#9c3bada781)"><g clip-path="url(#49136488d1)"><g clip-path="url(#27371fecca)"><path fill="#000000" d="M 252.628906 123.164062 C 252.867188 122.464844 252.820312 121.324219 251.351562 120.3125 C 249.886719 119.296875 248.078125 119.035156 249.050781 120.746094 C 250.027344 122.460938 251.261719 123.136719 252.628906 123.164062 Z M 252.628906 123.164062 " fill-opacity="1" fill-rule="nonzero"/></g></g></g></g><g clip-path="url(#fa88c33811)"><g clip-path="url(#cb9eea2eb6)"><g clip-path="url(#563bf4d0c7)"><g clip-path="url(#9b567ba68b)"><path fill="#969696" d="M 217.140625 101.683594 C 217.140625 101.683594 215.582031 114.617188 218.273438 123.964844 C 220.96875 133.316406 228.695312 151.949219 228.695312 151.949219 C 228.695312 151.949219 224.847656 139.519531 224.027344 135.082031 C 223.210938 130.648438 222.820312 128.191406 222.820312 128.191406 C 222.820312 128.191406 225.132812 133.253906 228.84375 136.707031 C 232.550781 140.160156 235.941406 141.300781 235.941406 141.300781 C 235.941406 141.300781 225.269531 135.011719 223.050781 126.066406 C 220.828125 117.121094 220.359375 108.398438 220.359375 108.398438 C 220.359375 108.398438 225.59375 113.097656 235.492188 113.011719 C 245.390625 112.921875 244.925781 111.054688 244.925781 111.054688 C 244.925781 111.054688 244.640625 109 243.984375 109.144531 C 243.324219 109.289062 236.886719 111.769531 230.355469 110.542969 C 223.824219 109.320312 218.792969 107.625 217.140625 101.683594 Z M 217.140625 101.683594 " fill-opacity="1" fill-rule="nonzero"/></g></g></g></g><g clip-path="url(#a14307f548)"><g clip-path="url(#249949d2df)"><g clip-path="url(#9871c4db78)"><g clip-path="url(#28addaeed8)"><path fill="#969696" d="M 233.609375 61.558594 C 233.609375 61.558594 242.3125 53.773438 254.0625 63.730469 C 265.808594 73.6875 266.257812 79.585938 263.945312 89.328125 C 263.945312 89.328125 257.769531 62.199219 233.609375 61.558594 Z M 233.609375 61.558594 " fill-opacity="1" fill-rule="nonzero"/></g></g></g></g><g clip-path="url(#30f200991e)"><g clip-path="url(#95c5dfde6e)"><g clip-path="url(#008c2836ee)"><g clip-path="url(#d5f053afa1)"><path fill="#646464" d="M 248.964844 78.195312 C 258.144531 81.507812 261.121094 88.921875 260.4375 91.070312 C 259.929688 92.195312 257.324219 93.257812 254.6875 93.664062 C 252.050781 94.074219 245.476562 92.765625 241.6875 91.488281 C 237.898438 90.210938 233.578125 86.027344 232.125 84.847656 C 230.671875 83.664062 229.183594 83.992188 226.976562 83.894531 C 224.769531 83.800781 219.421875 86.230469 219.421875 86.230469 C 219.421875 86.230469 222.34375 84.367188 224.21875 83.789062 C 226.09375 83.210938 228.800781 82.945312 228.632812 82.671875 C 228.46875 82.398438 227.203125 82.328125 225.625 82.402344 C 224.050781 82.476562 221.597656 83.503906 221.597656 83.503906 C 221.597656 83.503906 223.808594 82.179688 225.164062 81.726562 C 226.523438 81.277344 227.558594 81.269531 227.558594 81.269531 C 227.558594 81.269531 226.757812 80.058594 226.234375 78.671875 C 225.714844 77.285156 225.917969 73.761719 225.917969 73.761719 C 225.917969 73.761719 226.417969 76.34375 226.71875 77.742188 C 227.023438 79.144531 227.835938 80.59375 229.214844 81.230469 C 230.589844 81.867188 232.0625 81.058594 234.691406 79.394531 C 237.324219 77.730469 239.789062 74.882812 248.964844 78.195312 Z M 247.839844 79.292969 C 238.273438 75.851562 234.015625 82.929688 234.015625 82.929688 C 234.015625 82.929688 236.015625 86.710938 245.671875 90.28125 C 249.71875 91.773438 257.921875 93.582031 258.507812 90.03125 C 258.507812 90.03125 259.011719 83.921875 248.78125 79.648438 C 248.460938 79.515625 248.148438 79.402344 247.839844 79.292969 Z M 247.839844 79.292969 " fill-opacity="1" fill-rule="nonzero"/></g></g></g></g></svg>